<?xml version="1.0" standalone="no"?>
<!DOCTYPE svg PUBLIC "-//W3C//DTD SVG 20010904//EN"
 "http://www.w3.org/TR/2001/REC-SVG-20010904/DTD/svg10.dtd">
<svg version="1.0" xmlns="http://www.w3.org/2000/svg"
 width="500.000000pt" height="500.000000pt" viewBox="0 0 500.000000 500.000000"
 preserveAspectRatio="xMidYMid meet">

<g transform="translate(0.000000,500.000000) scale(0.100000,-0.100000)"
fill="#000000" stroke="none">
<path d="M2459 3607 c-129 -36 -204 -156 -180 -290 14 -82 68 -190 141 -282
84 -104 92 -107 147 -53 94 90 179 244 198 355 26 161 -146 313 -306 270z
m129 -82 c55 -23 81 -53 98 -111 34 -119 -44 -224 -166 -224 -61 0 -96 17
-138 64 -74 84 -42 220 62 267 50 23 95 24 144 4z"/>
<path d="M2498 3408 c-2 -15 -11 -24 -25 -26 -29 -4 -30 -30 -1 -34 14 -2 24
-12 28 -28 3 -14 12 -25 20 -25 8 0 17 11 20 25 4 16 14 26 28 28 29 4 28 30
0 34 -15 2 -24 11 -26 26 -2 14 -10 22 -22 22 -12 0 -20 -8 -22 -22z"/>
<path d="M2907 2994 c-4 -4 -7 -16 -7 -26 0 -16 -9 -18 -75 -18 l-75 0 0 -40
c0 -33 -3 -40 -20 -40 -19 0 -20 -7 -20 -95 0 -76 3 -95 14 -95 24 0 26 -14
15 -79 -7 -40 -20 -73 -36 -92 l-25 -29 -184 0 c-139 0 -186 3 -188 13 -3 6
-7 25 -11 40 -7 35 -72 106 -134 148 -43 29 -50 31 -118 26 -55 -4 -75 -2 -84
9 -14 17 -58 18 -80 1 -23 -18 -39 -52 -39 -85 0 -37 31 -70 193 -211 l128
-111 479 0 c313 0 480 3 480 10 0 7 -165 10 -474 10 l-474 0 -143 126 c-142
125 -168 153 -169 185 0 22 38 69 56 69 8 0 70 -51 137 -113 67 -63 132 -119
144 -125 16 -9 150 -12 482 -12 549 0 501 13 501 -134 0 -79 -3 -97 -21 -120
l-20 -26 -600 0 c-378 0 -607 4 -619 10 -27 14 -35 65 -16 95 15 23 23 25 86
25 40 0 70 4 70 10 0 6 -31 10 -73 10 -90 0 -112 -17 -112 -86 0 -63 20 -78
108 -84 l72 -5 3 -42 c2 -24 -1 -43 -6 -43 -22 0 -52 -43 -52 -74 0 -65 79
-91 119 -40 29 37 26 61 -9 94 -24 22 -30 36 -30 69 l0 41 485 0 485 0 0 -46
c0 -37 -5 -50 -25 -66 -48 -38 -22 -118 38 -118 38 0 50 7 66 37 16 32 4 70
-31 94 -24 18 -29 27 -26 58 3 34 5 36 47 42 70 9 81 30 81 159 0 93 -3 111
-21 134 -20 25 -23 26 -134 26 -94 0 -114 3 -119 16 -3 9 -6 103 -6 209 0 106
3 200 6 209 4 10 18 16 35 16 39 0 37 18 -3 22 -24 2 -34 9 -38 26 -3 13 -8
20 -13 16z m-7 -289 l0 -225 -90 0 c-49 0 -90 2 -90 5 0 3 6 16 14 28 8 12 20
53 27 91 9 53 16 70 30 73 17 5 19 16 19 98 0 84 -2 93 -20 98 -19 5 -27 36
-13 50 3 4 33 7 65 7 l58 0 0 -225z m-112 68 l3 -73 -31 0 -30 0 0 76 0 75 28
-3 c26 -3 27 -5 30 -75z m-672 -94 c39 -14 131 -95 149 -129 25 -48 20 -70
-16 -70 -33 0 -50 12 -173 128 -52 49 -65 66 -55 73 19 12 62 11 95 -2z m997
-670 c3 -11 -3 -29 -12 -41 -24 -29 -68 -18 -77 19 -10 37 26 67 61 51 13 -6
26 -19 28 -29z m-1013 17 c31 -38 -9 -89 -54 -68 -45 20 -30 82 20 82 12 0 27
-7 34 -14z"/>
<path d="M1553 1765 c-45 -19 -73 -69 -73 -128 0 -40 5 -53 33 -83 28 -31 42
-37 83 -41 56 -6 106 13 124 47 9 18 8 20 -15 20 -14 0 -37 -7 -50 -16 -38
-25 -91 -11 -115 29 -11 18 -20 40 -20 50 0 34 29 75 61 86 27 9 39 8 74 -9
69 -33 97 -24 53 18 -45 42 -100 51 -155 27z"/>
<path d="M1935 1761 c-68 -42 -91 -104 -62 -174 23 -54 69 -79 136 -74 47 3
59 9 88 40 28 31 33 44 33 84 0 60 -29 109 -75 129 -46 19 -84 18 -120 -5z
m131 -64 c21 -25 25 -38 20 -66 -3 -19 -14 -43 -24 -53 -10 -10 -34 -21 -53
-24 -51 -9 -99 33 -99 86 0 92 97 127 156 57z"/>
<path d="M2656 1759 c-49 -38 -30 -99 40 -129 46 -20 58 -46 29 -70 -15 -12
-55 -5 -55 11 0 5 -11 9 -25 9 -32 0 -32 -14 0 -45 47 -48 125 -25 141 40 8
33 -18 73 -60 90 -47 20 -61 39 -41 59 15 15 45 12 45 -5 0 -5 11 -9 25 -9 32
0 32 14 0 45 -30 30 -64 32 -99 4z"/>
<path d="M2270 1640 l0 -130 25 0 c24 0 24 1 27 95 l3 95 53 -95 c45 -79 58
-95 78 -95 l24 0 0 130 c0 123 -1 130 -20 130 -18 0 -20 -8 -22 -92 l-3 -93
-53 93 c-48 83 -56 92 -83 92 l-29 0 0 -130z"/>
<path d="M2920 1640 l0 -130 65 0 c63 0 65 1 65 25 0 23 -4 25 -40 25 l-40 0
0 105 0 105 -25 0 -25 0 0 -130z"/>
<path d="M3180 1640 l0 -130 70 0 c68 0 70 1 70 25 0 23 -4 25 -45 25 -43 0
-45 1 -45 30 0 29 2 30 45 30 38 0 45 3 45 20 0 17 -7 20 -45 20 -45 0 -45 0
-45 35 0 35 0 35 45 35 38 0 45 3 45 20 0 18 -7 20 -70 20 l-70 0 0 -130z"/>
<path d="M3470 1640 c0 -123 1 -130 20 -130 19 0 20 7 20 130 0 123 -1 130
-20 130 -19 0 -20 -7 -20 -130z"/>
<path d="M3625 1600 c4 -6 108 -10 280 -10 172 0 276 4 280 10 4 7 -92 10
-280 10 -188 0 -284 -3 -280 -10z"/>
<path d="M815 1580 c4 -6 108 -10 281 -10 176 0 274 4 274 10 0 6 -100 10
-281 10 -184 0 -278 -3 -274 -10z"/>
</g>
</svg>
