<?xml version="1.0" standalone="no"?>
<!DOCTYPE svg PUBLIC "-//W3C//DTD SVG 20010904//EN"
 "http://www.w3.org/TR/2001/REC-SVG-20010904/DTD/svg10.dtd">
<svg version="1.0" xmlns="http://www.w3.org/2000/svg"
 width="500.000000pt" height="500.000000pt" viewBox="0 0 500.000000 500.000000"
 preserveAspectRatio="xMidYMid meet">

<g transform="translate(0.000000,500.000000) scale(0.100000,-0.100000)"
fill="#000000" stroke="none">
<path d="M2449 3606 c-111 -39 -179 -129 -179 -235 0 -103 76 -260 180 -374
68 -73 79 -72 153 18 112 136 175 280 164 376 -19 157 -179 265 -318 215z
m167 -98 c53 -36 77 -89 72 -158 -7 -104 -80 -166 -184 -158 -93 8 -155 74
-156 168 0 82 45 146 120 171 41 13 112 2 148 -23z"/>
<path d="M2507 3434 c-4 -4 -7 -16 -7 -26 0 -11 -7 -18 -19 -18 -26 0 -44 -23
-29 -38 7 -7 20 -12 29 -12 11 0 19 -9 21 -22 4 -29 32 -30 36 -1 2 14 11 23
25 25 14 2 22 10 22 23 0 13 -8 21 -22 23 -13 2 -23 12 -25 24 -3 22 -19 33
-31 22z"/>
<path d="M2898 2978 c-3 -21 -8 -23 -75 -26 l-73 -3 0 -35 c0 -28 -5 -36 -25
-44 -24 -9 -25 -13 -25 -89 0 -88 5 -111 26 -111 32 0 8 -127 -31 -166 -24
-23 -28 -24 -204 -24 -197 0 -180 -5 -195 63 -4 15 -26 46 -49 69 -95 92 -140
112 -219 98 -31 -6 -49 -5 -65 6 -36 23 -79 18 -102 -12 -22 -28 -28 -83 -11
-114 9 -17 220 -209 284 -258 l29 -22 478 0 c313 0 479 3 479 10 0 7 -163 10
-469 10 l-468 0 -29 22 c-16 12 -86 73 -156 136 -117 104 -128 116 -128 148 0
21 8 42 20 54 26 26 42 18 130 -64 36 -34 91 -85 122 -114 l57 -52 466 0 466
0 25 -25 c25 -25 26 -30 22 -119 -2 -60 -8 -99 -17 -109 -12 -16 -69 -17 -625
-17 -463 0 -615 3 -624 12 -18 18 -14 73 6 91 13 12 37 17 80 17 35 0 62 4 62
10 0 12 -139 14 -156 2 -37 -24 -44 -96 -13 -136 19 -24 27 -26 90 -26 l69 0
0 -45 c0 -34 -5 -47 -20 -55 -30 -16 -43 -58 -30 -91 15 -36 57 -51 97 -34 52
22 58 73 12 116 -25 23 -30 35 -27 66 l3 38 480 0 480 0 3 -39 c3 -33 -1 -43
-24 -61 -54 -43 -23 -128 47 -128 67 0 91 75 39 123 -24 22 -30 36 -30 69 l0
41 39 0 c31 0 44 6 60 26 18 23 21 41 21 139 0 104 -2 113 -23 133 -21 20 -34
22 -135 22 l-112 0 0 219 0 220 27 3 c38 4 42 28 5 28 -24 0 -31 5 -34 22 -4
30 -26 34 -30 6z m0 -275 l-3 -218 -82 -3 c-46 -2 -83 1 -83 5 1 4 9 33 20 63
11 30 19 69 20 85 0 21 7 33 21 40 19 9 21 19 22 100 0 76 -2 90 -16 93 -10 2
-17 13 -17 28 0 23 3 24 60 24 l60 0 -2 -217z m-120 138 c9 -5 12 -27 10 -72
-3 -61 -4 -64 -28 -64 -23 0 -25 4 -28 59 -4 82 7 102 46 77z m-663 -166 c79
-32 181 -150 161 -184 -19 -29 -59 -9 -156 80 -55 50 -100 94 -100 99 0 22 49
25 95 5z m-17 -647 c32 -32 -4 -87 -48 -73 -25 8 -37 50 -20 70 15 18 51 20
68 3z m1000 0 c21 -21 14 -57 -13 -70 -22 -10 -29 -9 -47 10 -19 18 -20 25
-10 47 13 27 49 34 70 13z"/>
<path d="M1540 1758 c-80 -53 -88 -142 -20 -210 33 -34 43 -38 87 -38 50 0
111 29 121 58 5 18 -40 15 -82 -5 -90 -42 -163 70 -94 145 25 26 84 30 114 7
20 -15 64 -20 64 -7 0 5 -13 21 -30 37 -42 40 -112 46 -160 13z"/>
<path d="M1931 1763 c-93 -46 -94 -190 -2 -238 39 -20 106 -19 141 1 38 23 63
70 63 120 0 102 -107 164 -202 117z m126 -55 c43 -48 34 -117 -19 -144 -87
-45 -173 72 -103 141 32 33 93 34 122 3z"/>
<path d="M2270 1645 l0 -135 25 0 c25 0 25 0 25 98 l0 97 56 -97 c50 -89 58
-98 85 -98 l30 0 -3 133 c-3 128 -4 132 -25 135 -22 3 -22 0 -25 -95 l-3 -98
-55 97 c-49 87 -58 98 -82 98 l-28 0 0 -135z"/>
<path d="M2652 1757 c-13 -14 -22 -36 -22 -54 0 -33 17 -51 80 -85 34 -19 37
-43 7 -62 -15 -9 -22 -7 -37 12 -22 27 -60 30 -60 4 0 -31 42 -62 84 -62 62 0
102 57 80 115 -4 9 -28 27 -55 41 -34 17 -49 30 -49 44 0 21 34 29 45 10 9
-15 55 -12 55 3 0 8 -10 23 -23 35 -31 29 -77 29 -105 -1z"/>
<path d="M2920 1645 l0 -135 65 0 c63 0 65 1 65 25 0 23 -4 25 -40 25 l-40 0
0 110 0 110 -25 0 -25 0 0 -135z"/>
<path d="M3180 1645 l0 -135 70 0 c68 0 70 1 70 25 0 23 -4 25 -45 25 -43 0
-45 1 -45 30 0 29 2 30 45 30 41 0 45 2 45 25 0 23 -4 25 -45 25 -43 0 -45 1
-45 30 0 29 2 30 45 30 41 0 45 2 45 25 0 24 -2 25 -70 25 l-70 0 0 -135z"/>
<path d="M3470 1646 l0 -136 25 0 26 0 -3 133 c-3 128 -4 132 -25 135 -23 3
-23 3 -23 -132z"/>
<path d="M3625 1600 c4 -6 110 -10 286 -10 179 0 279 4 279 10 0 6 -102 10
-286 10 -187 0 -283 -3 -279 -10z"/>
<path d="M810 1580 c0 -6 100 -10 279 -10 176 0 282 4 286 10 4 7 -92 10 -279
10 -184 0 -286 -4 -286 -10z"/>
</g>
</svg>
