<?xml version="1.0" standalone="no"?>
<!DOCTYPE svg PUBLIC "-//W3C//DTD SVG 20010904//EN"
 "http://www.w3.org/TR/2001/REC-SVG-20010904/DTD/svg10.dtd">
<svg version="1.0" xmlns="http://www.w3.org/2000/svg"
 width="360.000000pt" height="360.000000pt" viewBox="0 0 360.000000 360.000000"
 preserveAspectRatio="xMidYMid meet">

<g transform="translate(0.000000,360.000000) scale(0.100000,-0.100000)"
fill="#000000" stroke="none">
<path d="M1550 3575 c-393 -58 -734 -230 -1014 -509 -342 -343 -526 -786 -526
-1269 0 -295 59 -546 191 -810 258 -514 751 -873 1329 -967 129 -21 346 -24
486 -6 774 99 1383 657 1545 1416 18 85 23 146 27 324 4 235 -3 316 -44 478
-56 225 -158 440 -302 638 -77 105 -289 313 -402 393 -225 159 -502 269 -788
312 -118 18 -383 18 -502 0z m504 -211 c147 -23 314 -77 451 -144 356 -177
642 -490 782 -859 76 -199 97 -322 97 -566 0 -226 -15 -320 -81 -515 -178
-524 -630 -923 -1180 -1040 -127 -27 -371 -37 -513 -21 -665 78 -1217 586
-1360 1251 -28 131 -38 398 -20 534 46 353 205 671 456 918 106 103 143 134
249 203 190 125 386 200 621 240 114 19 375 18 498 -1z"/>
<path d="M1720 2686 l0 -115 -112 -3 -113 -3 -3 -82 -3 -83 116 0 115 0 0
-110 0 -110 85 0 85 0 0 110 0 110 110 0 111 0 -3 83 -3 82 -107 3 -107 3 -3
112 -3 112 -82 3 -83 3 0 -115z"/>
<path d="M833 2165 c-18 -8 -42 -29 -53 -47 -19 -32 -20 -49 -20 -675 l0 -643
140 0 139 0 3 118 3 117 754 3 c597 2 756 0 763 -10 4 -7 8 -61 8 -120 l0
-108 140 0 140 0 0 420 c0 456 -1 466 -55 508 -21 16 -41 22 -82 22 -96 0
-140 -39 -145 -131 l-3 -54 -762 -3 -763 -2 0 263 0 262 -25 37 c-37 54 -115
73 -182 43z m1732 -1020 l0 -40 -762 -3 -763 -2 0 45 0 45 763 -2 762 -3 0
-40z"/>
<path d="M1105 1708 c-24 -22 -38 -45 -42 -70 l-6 -38 256 0 c163 0 258 4 262
10 10 17 -14 75 -41 101 -25 23 -31 24 -209 27 l-184 3 -36 -33z"/>
</g>
</svg>
